<?xml version="1.0" encoding="UTF-8" standalone="no"?>
<!-- Created with Inkscape (http://www.inkscape.org/) -->

<svg
   width="199.664mm"
   height="106.003mm"
   viewBox="0 0 199.664 106.003"
   version="1.1"
   id="svg1"
   xml:space="preserve"
   inkscape:version="1.3-alpha (391ce4f, 2023-04-03)"
   sodipodi:docname="manette.svg"
   inkscape:export-filename="manette.png"
   inkscape:export-xdpi="96"
   inkscape:export-ydpi="96"
   xmlns:inkscape="http://www.inkscape.org/namespaces/inkscape"
   xmlns:sodipodi="http://sodipodi.sourceforge.net/DTD/sodipodi-0.dtd"
   xmlns="http://www.w3.org/2000/svg"
   xmlns:svg="http://www.w3.org/2000/svg"><sodipodi:namedview
     id="namedview1"
     pagecolor="#505050"
     bordercolor="#ffffff"
     borderopacity="1"
     inkscape:showpageshadow="0"
     inkscape:pageopacity="0"
     inkscape:pagecheckerboard="1"
     inkscape:deskcolor="#d1d1d1"
     inkscape:document-units="mm"
     showguides="true"
     inkscape:zoom="2.37861"
     inkscape:cx="471.915"
     inkscape:cy="121.71"
     inkscape:window-width="2560"
     inkscape:window-height="1384"
     inkscape:window-x="0"
     inkscape:window-y="508"
     inkscape:window-maximized="1"
     inkscape:current-layer="layer2"
     showgrid="false"><sodipodi:guide
       position="99.8914,151.007"
       orientation="1,0"
       id="guide8"
       inkscape:locked="false" /></sodipodi:namedview><defs
     id="defs1" /><g
     inkscape:groupmode="layer"
     id="layer2"
     inkscape:label="Calque 2"><rect
       style="fill:#333333;stroke:#333333;stroke-width:1.5;stroke-linecap:round;stroke-linejoin:round;stroke-dasharray:none;paint-order:fill markers stroke"
       id="rect19"
       width="754.636"
       height="400.641"
       x="0"
       y="0"
       transform="scale(0.264583)" /></g><g
     inkscape:label="Calque 1"
     inkscape:groupmode="layer"
     id="layer1"><path
       style="fill:none;stroke:#ffffff;stroke-width:64.4497;stroke-dasharray:none"
       d="m 5155,4065 c 241,-51 446,-255 501,-501 34,-154 4,-333 -78,-472 -52,-89 -160,-191 -253,-239 -107,-55 -189,-76 -305,-76 -256,-1 -480,139 -590,368 -50,105 -64,169 -63,285 1,257 138,473 370,586 127,62 275,79 418,49 z"
       transform="matrix(0.012316,0,0,-0.012316,7.8955,81.5938)"
       id="path13" /><path
       style="fill:none;stroke:#ffffff;stroke-width:64.4497;stroke-dasharray:none"
       d="m 5155,4065 c 241,-51 446,-255 501,-501 34,-154 4,-333 -78,-472 -52,-89 -160,-191 -253,-239 -107,-55 -189,-76 -305,-76 -256,-1 -480,139 -590,368 -50,105 -64,169 -63,285 1,257 138,473 370,586 127,62 275,79 418,49 z"
       transform="matrix(0.012316,0,0,-0.012316,50.4069,102.097)"
       id="path13-9" /><path
       style="fill:none;stroke:#ffffff;stroke-width:96.4342;stroke-dasharray:none"
       d="m 9662,5352 c 64,-31 126,-96 157,-162 34,-73 36,-191 4,-262 -30,-66 -95,-133 -162,-165 -48,-24 -68,-28 -141,-28 -73,0 -93,4 -142,28 -167,82 -234,293 -142,453 31,55 114,129 167,148 64,24 199,17 259,-12 z"
       transform="matrix(0.008231,0,0,-0.008231,50.7506,90.5325)"
       id="path12" /><path
       style="fill:none;stroke:#ffffff;stroke-width:96.4342;stroke-dasharray:none"
       d="m 10467,6160 c 113,-56 178,-161 178,-290 0,-65 -5,-85 -33,-142 -58,-119 -161,-183 -292,-183 -132,1 -234,65 -292,183 -28,57 -33,76 -33,142 1,60 6,87 27,131 80,174 273,243 445,159 z"
       transform="matrix(0.008231,0,0,-0.008231,50.7506,90.5325)"
       id="path11" /><path
       style="fill:none;stroke:#ffffff;stroke-width:96.4342;stroke-dasharray:none"
       d="m 8783,6186 c 108,-25 207,-118 237,-222 18,-62 9,-180 -18,-236 -31,-63 -96,-126 -162,-157 -80,-37 -192,-36 -271,2 -66,32 -132,99 -162,165 -31,66 -31,198 -1,263 43,92 132,165 231,188 55,13 81,12 146,-3 z"
       transform="matrix(0.008231,0,0,-0.008231,50.7506,90.5325)"
       id="path10" /><path
       style="fill:none;stroke:#ffffff;stroke-width:64.2895;stroke-dasharray:none"
       d="m 8783,6186 c 108,-25 207,-118 237,-222 18,-62 9,-180 -18,-236 -31,-63 -96,-126 -162,-157 -80,-37 -192,-36 -271,2 -66,32 -132,99 -162,165 -31,66 -31,198 -1,263 43,92 132,165 231,188 55,13 81,12 146,-3 z"
       transform="matrix(0.008231,0,0,-0.008231,28.2478,91.4846)"
       id="path10-9" /><path
       style="fill:none;stroke:#ffffff;stroke-width:64.2895;stroke-dasharray:none"
       d="m 8783,6186 c 108,-25 207,-118 237,-222 18,-62 9,-180 -18,-236 -31,-63 -96,-126 -162,-157 -80,-37 -192,-36 -271,2 -66,32 -132,99 -162,165 -31,66 -31,198 -1,263 43,92 132,165 231,188 55,13 81,12 146,-3 z"
       transform="matrix(0.008231,0,0,-0.008231,36.542,89.3242)"
       id="path10-9-1" /><path
       style="fill:none;stroke:#ffffff;stroke-width:64.2895;stroke-dasharray:none"
       d="m 8783,6186 c 108,-25 207,-118 237,-222 18,-62 9,-180 -18,-236 -31,-63 -96,-126 -162,-157 -80,-37 -192,-36 -271,2 -66,32 -132,99 -162,165 -31,66 -31,198 -1,263 43,92 132,165 231,188 55,13 81,12 146,-3 z"
       transform="matrix(0.008231,0,0,-0.008231,19.9536,89.3242)"
       id="path10-9-1-1" /><path
       style="fill:none;stroke:#ffffff;stroke-width:96.4342;stroke-dasharray:none"
       d="m 3360,6495 v -355 h 355 355 l -2,-236 -3,-235 -352,1 h -353 l -2,-357 -3,-358 -237,-3 -238,-2 v 360 360 h -355 -355 v 235 235 h 355 355 v 355 355 h 240 240 z"
       transform="matrix(0.008231,0,0,-0.008231,57.9129,108.436)"
       id="path9" /><path
       style="fill:none;stroke:#ffffff;stroke-width:96.4342;stroke-dasharray:none"
       d="m 9583,6986 c 105,-25 197,-106 233,-208 20,-55 20,-161 0,-216 -83,-232 -381,-295 -546,-116 -65,70 -85,123 -85,224 0,65 5,96 21,131 42,90 125,159 223,185 60,16 84,16 154,0 z"
       transform="matrix(0.008231,0,0,-0.008231,50.7506,90.5325)"
       id="path8" /><path
       style="fill:none;stroke:#ffffff;stroke-width:64.2895;stroke-dasharray:none"
       d="M 2870,8230 C 2500,8151 2108,7836 1713,7300 937,6246 262,4441 60,2885 16,2545 6,2385 6,2025 6,1659 16,1518 60,1270 195,521 548,96 1103,14 c 264,-39 525,12 787,153 249,134 457,300 750,599 257,262 426,464 860,1029 139,182 295,381 347,442 l 94,113 h 2459 2459 l 94,-113 c 52,-61 220,-276 375,-477 456,-594 628,-795 918,-1080 246,-240 416,-374 629,-494 278,-156 547,-213 822,-172 129,19 235,52 344,107 679,340 915,1448 654,3064 -210,1300 -740,2753 -1371,3764 -204,326 -395,571 -619,797 -265,266 -479,405 -731,476 -79,23 -84,23 -934,26 -830,3 -856,2 -920,-17 -85,-26 -209,-105 -410,-261 -181,-140 -280,-204 -357,-232 -49,-17 -104,-18 -953,-18 -849,0 -904,1 -953,18 -77,28 -176,92 -357,232 -200,155 -324,234 -408,260 -62,19 -93,20 -896,19 -764,0 -838,-2 -916,-19 z"
       transform="matrix(0.008231,0,0,-0.008231,47.213,90.5533)"
       id="path1" /><text
       xml:space="preserve"
       style="font-size:24px;line-height:28.8px;font-family:'ABChanel Corpo';-inkscape-font-specification:'ABChanel Corpo';letter-spacing:0px;word-spacing:0px;fill:#00ff66"
       x="462.718"
       y="422.363"
       id="text8"
       transform="matrix(0.264583,0,0,0.264583,33.378,-60.3685)"><tspan
         sodipodi:role="line"
         id="tspan8"
         x="462.718"
         y="422.363"
         style="font-style:normal;font-variant:normal;font-weight:normal;font-stretch:normal;font-size:24px;font-family:'Core Sans A 45 Regular';-inkscape-font-specification:'Core Sans A 45 Regular, ';fill:#00ff66">Run</tspan></text><text
       xml:space="preserve"
       style="font-size:24px;line-height:28.8px;font-family:'ABChanel Corpo';-inkscape-font-specification:'ABChanel Corpo';letter-spacing:0px;word-spacing:0px;fill:#00ff66"
       x="462.718"
       y="422.363"
       id="text8-6"
       transform="matrix(0.264583,0,0,0.264583,-19.8791,-26.7584)"><tspan
         sodipodi:role="line"
         id="tspan8-1"
         x="462.718"
         y="422.363"
         style="font-style:normal;font-variant:normal;font-weight:normal;font-stretch:normal;font-size:24px;font-family:'Core Sans A 45 Regular';-inkscape-font-specification:'Core Sans A 45 Regular, ';fill:#00ff66">Camera</tspan></text><text
       xml:space="preserve"
       style="font-size:24px;line-height:28.8px;font-family:'ABChanel Corpo';-inkscape-font-specification:'ABChanel Corpo';letter-spacing:0px;word-spacing:0px;fill:#00ff66"
       x="462.718"
       y="422.363"
       id="text8-6-2"
       transform="matrix(0.264583,0,0,0.264583,-95.8909,-74.1465)"><tspan
         sodipodi:role="line"
         id="tspan8-1-0"
         x="462.718"
         y="422.363"
         style="font-style:normal;font-variant:normal;font-weight:normal;font-stretch:normal;font-size:24px;font-family:'Core Sans A 45 Regular';-inkscape-font-specification:'Core Sans A 45 Regular, ';fill:#00ff66">Player</tspan><tspan
         sodipodi:role="line"
         x="462.718"
         y="452.962"
         style="font-style:normal;font-variant:normal;font-weight:normal;font-stretch:normal;font-size:24px;font-family:'Core Sans A 45 Regular';-inkscape-font-specification:'Core Sans A 45 Regular, ';fill:#00ff66"
         id="tspan14">move</tspan></text><text
       xml:space="preserve"
       style="font-size:24px;line-height:28.8px;font-family:'ABChanel Corpo';-inkscape-font-specification:'ABChanel Corpo';letter-spacing:0px;word-spacing:0px;fill:#00ff66"
       x="462.718"
       y="422.363"
       id="text8-8"
       transform="matrix(0.264583,0,0,0.264583,39.8457,-67.3483)"><tspan
         sodipodi:role="line"
         id="tspan8-4"
         x="462.718"
         y="422.363"
         style="font-style:normal;font-variant:normal;font-weight:normal;font-stretch:normal;font-size:24px;font-family:'Core Sans A 45 Regular';-inkscape-font-specification:'Core Sans A 45 Regular, ';fill:#00ff66">Jump</tspan></text><text
       xml:space="preserve"
       style="font-size:24px;line-height:28.8px;font-family:'ABChanel Corpo';-inkscape-font-specification:'ABChanel Corpo';letter-spacing:0px;word-spacing:0px;fill:#00ff66"
       x="462.718"
       y="422.363"
       id="text8-8-5"
       transform="matrix(0.264583,0,0,0.264583,-88.2549,-94.7672)"><tspan
         sodipodi:role="line"
         id="tspan8-4-4"
         x="462.718"
         y="422.363"
         style="font-style:normal;font-variant:normal;font-weight:normal;font-stretch:normal;font-size:24px;font-family:'Core Sans A 45 Regular';-inkscape-font-specification:'Core Sans A 45 Regular, ';fill:#00ff66">Run</tspan></text><text
       xml:space="preserve"
       style="font-size:32px;line-height:38.4px;font-family:'ABChanel Corpo';-inkscape-font-specification:'ABChanel Corpo';letter-spacing:0px;word-spacing:0px;fill:#00ff66"
       x="462.718"
       y="422.363"
       id="text8-8-5-4"
       transform="matrix(0.264583,0,0,0.264583,32.6325,-101.007)"><tspan
         sodipodi:role="line"
         id="tspan8-4-4-4"
         x="462.718"
         y="422.363"
         style="font-style:normal;font-variant:normal;font-weight:normal;font-stretch:normal;font-size:32px;font-family:'Core Sans A 45 Regular';-inkscape-font-specification:'Core Sans A 45 Regular, ';fill:#00ccff">Gameplay</tspan></text><path
       style="fill:none;stroke:#ffffff;stroke-width:2;stroke-linecap:butt;stroke-linejoin:miter;stroke-dasharray:none;stroke-opacity:1"
       d="m 225.853,123.69 -8.798,-5.764 c 0,0 24.613,-32.1507 34.03,-36.2041 8.728,-3.7567 38.762,-3.483 38.762,-3.483 v 7.3914"
       id="path14"
       transform="scale(0.264583)"
       sodipodi:nodetypes="ccscc" /><path
       style="fill:none;stroke:#ffffff;stroke-width:2;stroke-linecap:butt;stroke-linejoin:miter;stroke-dasharray:none;stroke-opacity:1"
       d="m 225.853,123.69 -8.798,-5.764 c 0,0 24.613,-32.1507 34.03,-36.2041 8.728,-3.7567 38.762,-3.483 38.762,-3.483 v 7.3914"
       id="path14-7"
       transform="matrix(-0.264583,0,0,0.264583,199.644,-0.20588)"
       sodipodi:nodetypes="ccscc" /><path
       style="fill:none;stroke:#00ff66;stroke-width:1.5;stroke-linecap:butt;stroke-linejoin:miter;stroke-dasharray:none;stroke-opacity:1"
       d="m 177.629,59.0392 58.376,36.1102"
       id="path15"
       transform="scale(0.264583)" /><text
       xml:space="preserve"
       style="font-size:24px;line-height:28.8px;font-family:'ABChanel Corpo';-inkscape-font-specification:'ABChanel Corpo';letter-spacing:0px;word-spacing:0px;fill:#00ff66"
       x="462.718"
       y="422.363"
       id="text8-8-5-5"
       transform="matrix(0.264583,0,0,0.264583,20.8997,-90.246)"><tspan
         sodipodi:role="line"
         id="tspan8-4-4-3"
         x="462.718"
         y="422.363"
         style="font-style:normal;font-variant:normal;font-weight:normal;font-stretch:normal;font-size:24px;font-family:'Core Sans A 45 Regular';-inkscape-font-specification:'Core Sans A 45 Regular, ';fill:#00ff66">Reset position</tspan><tspan
         sodipodi:role="line"
         x="462.718"
         y="452.962"
         style="font-style:normal;font-variant:normal;font-weight:normal;font-stretch:normal;font-size:24px;font-family:'Core Sans A 45 Regular';-inkscape-font-specification:'Core Sans A 45 Regular, ';fill:#00ff66"
         id="tspan1">(long press)</tspan></text><path
       style="fill:none;stroke:#00ff66;stroke-width:1.5;stroke-linecap:butt;stroke-linejoin:miter;stroke-dasharray:none;stroke-opacity:1"
       d="M 109.582,14.4143 236.005,95.1494"
       id="path15-5"
       transform="matrix(-0.264583,0,0,0.264583,170.857,15.5025)"
       sodipodi:nodetypes="cc" /><path
       style="fill:none;stroke:#00ff66;stroke-width:1.5;stroke-linecap:butt;stroke-linejoin:miter;stroke-dasharray:none;stroke-opacity:1"
       d="m 167.351,148.807 h 96.092"
       id="path16"
       transform="scale(0.264583)"
       sodipodi:nodetypes="cc" /><path
       style="fill:none;stroke:#00ff66;stroke-width:1.5;stroke-linecap:butt;stroke-linejoin:miter;stroke-dasharray:none;stroke-opacity:1"
       d="M 424.116,297.904 V 226.3"
       id="path17"
       transform="scale(0.264583)"
       sodipodi:nodetypes="cc" /><path
       style="fill:none;stroke:#00ff66;stroke-width:1.5;stroke-linecap:butt;stroke-linejoin:miter;stroke-dasharray:none;stroke-opacity:1"
       d="m 488.006,184.856 89.601,1.086"
       id="path18"
       transform="scale(0.264583)" /><path
       style="fill:none;stroke:#00ff66;stroke-width:1.5;stroke-linecap:butt;stroke-linejoin:miter;stroke-dasharray:none;stroke-opacity:1"
       d="m 512.861,159.562 h 90.76"
       id="path19"
       transform="scale(0.264583)" /></g></svg>
